<!--?xml version="1.0" encoding="utf-8"?-->
<!-- Generator: Adobe Illustrator 19.1.1, SVG Export Plug-In . SVG Version: 6.00 Build 0)  -->
<svg version="1.1" id="_x31_0" xmlns="http://www.w3.org/2000/svg" xmlns:xlink="http://www.w3.org/1999/xlink" x="0px" y="0px" viewBox="0 0 512 512" style="width: 256px; height: 256px; opacity: 1;" xml:space="preserve">
<style type="text/css">
	.st0{fill:#374149;}
</style>
<g>
	<path class="st0" d="M293.965,269.191c-0.176-0.98-0.422-2.011-0.519-2.957c-0.028,0.058-0.066,0.114-0.094,0.168
		c-0.019-0.074-0.031-0.16-0.05-0.234c-14.054,28.59-39.703,51.215-71.278,62.676c0.473,1.082,0.95,2.203,1.469,3.285
		c9.082,3.289,20.461,5.106,32.527,5.106c1.871,0,3.63-0.234,5.465-0.32c0.926-0.047,1.84-0.098,2.758-0.164
		c3.496-0.25,6.836-0.641,10.102-1.2c1.066-0.179,2.113-0.378,3.148-0.59c1.485-0.305,3.114-0.477,4.524-0.844
		c4.195-1.078,7.652-4.191,9.125-8.258c0-0.046,0-0.046,0.042-0.09c4.887-13.754,9.086-25.606,3.59-52.894
		C294.516,271.614,294.234,270.418,293.965,269.191z" style="fill: rgb(75, 75, 75);"></path>
	<path class="st0" d="M311.707,181.481c-1.129-1.997-4.203-7.454-5.485-10.161c0.5-3.496,2.672-8.382,3.817-10.195
		c8.113-9.175,10.621-21.113,6.679-32.09c-3.93-10.894-13.441-18.523-24.594-19.886l-3.71-0.27c-1.465,0-5.192,0.242-32.637,3.168
		c-0.352,0.035-35.031,3.77-35.68,3.87c-11.43,1.454-20.926,9.118-24.789,19.973c-4.074,11.379-1.258,23.734,8.09,33.614
		c1.137,1.168,1.762,1.902,2.106,2.386c-1.262,2.543-3.558,6.68-5.18,9.602c-9.336,16.633-23.453,41.758-31.175,80.02
		c-7.489,37.343-1.84,58.285,5.183,78.113l0.297,0.918c4.367,12.246,10.062,21.285,13.485,26.714
		c0.586,0.918,1.273,2.031,1.804,2.93c3.414,12.696,12.676,22.821,25.024,27.242c10.898,3.883,23.949,5.695,41.078,5.695
		c17.145,0,30.188-1.812,41.035-5.695c12.223-4.359,21.73-14.77,25.094-27.355c0.285-0.477,0.629-1.027,0.968-1.57l0.805-1.309
		c3.661-5.82,9.203-14.613,13.442-26.648c7.215-20.219,13.062-41.481,5.488-79.043C335.106,223.16,321.027,198.09,311.707,181.481z
		 M287.855,376.496c-5.969,2.125-15.226,4.114-31.836,4.114c-16.609,0-25.91-1.989-31.836-4.114
		c-4.023-1.426-6.918-8.031-7.87-12.141c11.851,3.719,25.476,5.75,39.706,5.75c12.356,0,24.18-1.614,34.829-4.45
		c1.609-0.406,3.254-0.766,4.812-1.218C294.687,368.55,291.805,375.078,287.855,376.496z M311.558,331.394
		c-2.164,5.996-4.71,10.922-7.172,15.137c-0.171,0.278-0.285,0.543-0.461,0.824l-0.199,0.086
		c-12.629,6.312-29.586,9.774-47.707,9.774c-18.125,0-35.082-3.462-47.75-9.774l-0.219-0.09c-2.121-3.629-4.37-7.828-6.359-12.801
		c-0.43-0.996-0.82-2.074-1.21-3.156c-5.969-16.781-10.86-32.613-4.458-64.445c10.946-54.199,36.68-79.458,37.29-92.786
		c0.558-13.019-7.356-20.758-10.555-24.09c-3.418-3.637-1.426-6.66,0.778-6.961c0.953-0.133,32.699-3.59,51.473-5.539
		c7.312-0.778,12.672-1.297,13.406-1.297c0.046,0,0.046,0.042,0.086,0.042c2.164,0.258,4.199,3.332,0.738,6.922
		c-1.082,1.168-2.722,3.629-4.414,6.918c-3.195,6.274-6.488,15.442-6.098,24.004c0.434,9.649,14.098,25.61,25.691,54.332
		c0.734,1.786,1.438,3.707,2.153,5.598c0.863,2.301,1.68,4.625,2.465,6.977c1.316,3.922,2.566,8.031,3.726,12.367
		c0.562,2.098,1.078,4.211,1.582,6.332c0.554,2.363,1.125,4.695,1.625,7.18C322.367,298.782,317.523,314.614,311.558,331.394z" style="fill: rgb(75, 75, 75);"></path>
	<path class="st0" d="M256,0C114.614,0,0,114.617,0,256s114.614,256,256,256c141.383,0,256-114.617,256-256S397.383,0,256,0z
		 M256,448c-105.867,0-192-86.133-192-192S150.133,64,256,64s192,86.133,192,192S361.867,448,256,448z" style="fill: rgb(75, 75, 75);"></path>
</g>
</svg>
